# Blender v2.79 (sub 0) OBJ File: 'knightCourtNew.blend'
# www.blender.org
v -4.711647 18.299667 -28.479897
v -8.330497 18.299667 -26.167933
v -8.330499 19.751091 -26.167933
v -4.711647 19.751091 -28.479895
v 4.705688 18.299669 -17.839542
v -4.711648 18.299667 -17.839542
v -8.330498 18.299667 -20.151508
v 4.705689 18.299669 -28.479897
v 8.324539 18.299669 -26.167931
v 8.324540 18.299669 -20.151506
v 4.705688 19.751093 -17.839542
v -4.711648 19.751091 -17.839542
v 4.705689 19.751093 -28.479897
v 8.324540 19.751093 -26.167933
v -8.330499 19.751091 -20.151508
v -8.330499 19.082031 -23.876627
v -8.330499 18.797882 -23.876627
v 8.324539 19.751093 -20.151506
v -8.330498 18.797882 -22.442812
v -8.330499 19.082031 -22.442812
v 8.324539 19.082033 -22.442810
v 8.324539 18.797886 -22.442810
v 8.324538 18.797886 -23.876625
v 8.324539 19.082033 -23.876625
vt 0.000018 0.714599
vt 0.030227 0.803978
vt 0.000018 0.803978
vt 0.000018 0.303995
vt 0.030227 0.500000
vt 0.000018 0.500000
vt 0.000018 0.089396
vt 0.030226 0.000017
vt 0.030226 0.089396
vt 0.030227 0.589378
vt 0.000018 0.589378
vt 0.000018 0.214617
vt 0.030227 0.303995
vt 0.030226 0.999983
vt 0.000017 0.999983
vt 0.010387 0.666910
vt 0.010387 0.637068
vt 0.016301 0.637068
vt 0.016301 0.666910
vt 0.030227 0.714599
vt 0.010387 0.137085
vt 0.016301 0.137085
vt 0.016301 0.166927
vt 0.010387 0.166927
vt 0.030226 0.214617
vt 0.000017 0.000017
vn -0.5384 -0.0000 -0.8427
vn 0.0000 0.0000 1.0000
vn 0.5384 -0.0000 -0.8427
vn -0.5384 -0.0000 0.8427
vn 0.5384 0.0000 0.8427
vn 0.0000 0.0000 -1.0000
vn -1.0000 0.0000 -0.0000
vn 1.0000 0.0000 0.0000
s 1
f 2/1/1 4/2/1 1/3/1
f 5/4/2 12/5/2 6/6/2
f 9/7/3 13/8/3 14/9/3
f 6/6/4 15/10/4 7/11/4
f 10/12/5 11/13/5 5/4/5
f 1/3/6 13/14/6 8/15/6
f 17/16/7 7/11/7 19/17/7
f 20/18/7 7/11/7 15/10/7
f 16/19/7 2/1/7 17/16/7
f 16/19/7 15/10/7 3/20/7
f 23/21/8 10/12/8 9/7/8
f 24/22/8 9/7/8 14/9/8
f 21/23/8 10/12/8 22/24/8
f 24/22/8 18/25/8 21/23/8
f 2/1/1 3/20/1 4/2/1
f 5/4/2 11/13/2 12/5/2
f 9/7/3 8/26/3 13/8/3
f 6/6/4 12/5/4 15/10/4
f 10/12/5 18/25/5 11/13/5
f 1/3/6 4/2/6 13/14/6
f 17/16/7 2/1/7 7/11/7
f 20/18/7 19/17/7 7/11/7
f 16/19/7 3/20/7 2/1/7
f 16/19/7 20/18/7 15/10/7
f 23/21/8 22/24/8 10/12/8
f 24/22/8 23/21/8 9/7/8
f 21/23/8 18/25/8 10/12/8
f 24/22/8 14/9/8 18/25/8
