# Blender v2.79 (sub 0) OBJ File: 'ninjaCourt.blend'
# www.blender.org
v -98.734177 -26.107452 -28.819988
v -98.734177 53.584557 -28.819988
v -98.734177 -26.107452 -30.819988
v -98.734177 53.584557 -30.819988
v 91.210510 -26.107452 -28.819988
v 91.210510 53.584557 -28.819988
v 91.210510 -26.107452 -30.819988
v 91.210510 53.584557 -30.819988
v -37.652798 -26.107452 -30.819988
v -37.652798 53.584557 -30.819988
v -37.652798 -26.107452 -28.819988
v -37.652798 53.584557 -28.819988
v 35.100197 53.584557 -30.819988
v 35.100197 -26.107452 -28.819988
v 35.100201 -26.107452 -30.819988
v 35.100201 53.584557 -28.819988
v -98.734177 24.392563 -28.819988
v -98.734177 24.392563 -30.819988
v 91.210510 24.392563 -30.819988
v 91.210510 24.392563 -28.819988
v -37.652798 24.392563 -28.819988
v -37.652798 24.392563 -30.819988
v 35.100201 24.392563 -28.819988
v 35.100201 24.392563 -30.819988
v -98.734177 -2.884817 -30.819988
v 91.210510 -2.884817 -30.819988
v 91.210510 -2.884817 -28.819988
v -37.652798 -2.884817 -28.819988
v -37.652798 -2.884817 -30.819988
v 35.100201 -2.884817 -28.819988
v 35.100201 -2.884817 -30.819988
v -98.734177 -2.884817 -28.819988
vt 0.333333 0.333333
vt 0.500000 0.000000
vt 0.500000 0.333333
vt 0.064439 0.416667
vt 0.000000 0.333333
vt 0.064439 0.333333
vt 0.166667 0.000000
vt 0.568723 0.666667
vt 0.140083 0.500000
vt 0.568723 0.500000
vt 0.666667 0.333333
vt 0.750000 0.000000
vt 0.750000 0.333333
vt 0.333333 1.000000
vt 0.000000 0.833333
vt 0.333333 0.833333
vt 0.000000 0.750000
vt 0.333333 0.750000
vt 0.833333 0.333333
vt 1.000000 0.000000
vt 1.000000 0.333333
vt 0.783043 0.666667
vt 0.783043 0.500000
vt 0.000000 0.666667
vt 0.064439 0.500000
vt 0.064439 0.666667
vt 0.997363 0.666667
vt 0.997363 0.500000
vt 0.000000 0.666667
vt 0.333333 0.666667
vt 0.833333 0.000000
vt 0.000000 0.500000
vt 0.096658 0.416667
vt 0.096658 0.500000
vt 0.783043 0.416667
vt 0.997363 0.416667
vt 0.096658 0.666667
vt 0.568723 0.416667
vt 0.140083 0.416667
vt 0.250000 0.000000
vt 0.096659 0.333333
vt 0.583333 0.000000
vt 0.583333 0.333333
vt 0.666667 0.000000
vt 0.666667 0.333333
vt 0.128878 0.333333
vt 0.128878 0.416667
vt 0.333333 0.000000
vt 0.140083 0.333333
vt 0.568723 0.333333
vt 0.783043 0.333333
vt 0.128878 0.500000
vt 0.128878 0.666667
vt 0.997363 0.333333
vt 0.333333 0.000000
vt 0.000000 0.416667
vt 0.000000 0.000000
vt 0.140083 0.666667
vt 0.666667 0.000000
vt 0.000000 1.000000
vn -1.0000 0.0000 0.0000
vn 0.0000 0.0000 -1.0000
vn 1.0000 0.0000 0.0000
vn 0.0000 0.0000 1.0000
vn 0.0000 -1.0000 -0.0000
vn 0.0000 1.0000 0.0000
s off
f 2/1/1 18/2/1 17/3/1
f 24/4/2 8/5/2 19/6/2
f 8/5/3 20/7/3 19/6/3
f 12/8/4 17/9/4 21/10/4
f 7/11/5 14/12/5 15/13/5
f 4/14/6 12/15/6 10/16/6
f 10/16/6 16/17/6 13/18/6
f 9/19/5 1/20/5 3/21/5
f 16/22/4 21/10/4 23/23/4
f 4/24/2 22/25/2 18/26/2
f 6/27/4 23/23/4 20/28/4
f 13/18/6 6/29/6 8/30/6
f 15/13/5 11/31/5 9/19/5
f 10/32/2 24/4/2 22/25/2
f 22/25/2 31/33/2 29/34/2
f 20/28/4 30/35/4 27/36/4
f 18/26/2 29/34/2 25/37/2
f 23/23/4 28/38/4 30/35/4
f 21/10/4 32/39/4 28/38/4
f 19/6/3 27/40/3 26/41/3
f 24/4/2 26/41/2 31/33/2
f 17/3/1 25/42/1 32/43/1
f 32/43/1 3/44/1 1/45/1
f 31/33/2 7/46/2 15/47/2
f 26/41/3 5/48/3 7/46/3
f 28/38/4 1/49/4 11/50/4
f 14/51/4 28/38/4 11/50/4
f 25/37/2 9/52/2 3/53/2
f 27/36/4 14/51/4 5/54/4
f 29/34/2 15/47/2 9/52/2
f 2/1/1 4/55/1 18/2/1
f 24/4/2 13/56/2 8/5/2
f 8/5/3 6/57/3 20/7/3
f 12/8/4 2/58/4 17/9/4
f 7/11/5 5/59/5 14/12/5
f 4/14/6 2/60/6 12/15/6
f 10/16/6 12/15/6 16/17/6
f 9/19/5 11/31/5 1/20/5
f 16/22/4 12/8/4 21/10/4
f 4/24/2 10/32/2 22/25/2
f 6/27/4 16/22/4 23/23/4
f 13/18/6 16/17/6 6/29/6
f 15/13/5 14/12/5 11/31/5
f 10/32/2 13/56/2 24/4/2
f 22/25/2 24/4/2 31/33/2
f 20/28/4 23/23/4 30/35/4
f 18/26/2 22/25/2 29/34/2
f 23/23/4 21/10/4 28/38/4
f 21/10/4 17/9/4 32/39/4
f 19/6/3 20/7/3 27/40/3
f 24/4/2 19/6/2 26/41/2
f 17/3/1 18/2/1 25/42/1
f 32/43/1 25/42/1 3/44/1
f 31/33/2 26/41/2 7/46/2
f 26/41/3 27/40/3 5/48/3
f 28/38/4 32/39/4 1/49/4
f 14/51/4 30/35/4 28/38/4
f 25/37/2 29/34/2 9/52/2
f 27/36/4 30/35/4 14/51/4
f 29/34/2 31/33/2 15/47/2
